<?xml version="1.0" encoding="utf-8"?>
<svg width="54px" height="41px" viewBox="0 0 54 41" version="1.1" xmlns:xlink="http://www.w3.org/1999/xlink" xmlns="http://www.w3.org/2000/svg">
  <path d="M45.0565 3.4248C45.04 3.39185 45.0112 3.3667 44.9764 3.35486C41.5341 1.77295 37.9 0.646851 34.1665 0.00476074C34.0953 -0.0130615 34.0211 0.0200195 33.9866 0.0848389C33.4965 0.984863 33.0465 1.91479 32.6465 2.84485C28.6194 2.23474 24.5234 2.23474 20.4963 2.84485C20.0996 1.90125 19.6455 0.982788 19.1365 0.0948486C19.1055 0.0314941 19.0348 -0.00170898 18.9663 0.0148926C15.2273 0.647583 11.5889 1.77405 8.14649 3.36475C8.11853 3.37891 8.09448 3.39954 8.07654 3.42505C1.93469 12.2413 -0.849854 22.9642 0.22644 33.6548C0.23523 33.7042 0.264282 33.7478 0.306519 33.7749C4.31506 36.7457 8.79871 39.0146 13.5665 40.4849C13.6384 40.5095 13.7178 40.4803 13.7565 40.4148C14.7855 39.0239 15.6954 37.5487 16.4764 36.0049C16.4966 35.9653 16.4994 35.9192 16.4843 35.8774C16.4691 35.8358 16.4373 35.8022 16.3965 35.7849L16.3965 35.7849C14.9644 35.2245 13.577 34.5559 12.2465 33.7849C12.1625 33.7368 12.1315 33.6307 12.1766 33.5449L12.1765 33.5449C12.4565 33.345 12.7366 33.1249 12.9965 32.9049C13.0538 32.8792 13.1193 32.8792 13.1766 32.9049C21.6302 36.8755 31.413 36.8755 39.8666 32.9049C39.9216 32.8706 39.9915 32.8706 40.0465 32.9049C40.3065 33.1149 40.5865 33.3448 40.8665 33.5449C40.9326 33.6112 40.9326 33.7186 40.8665 33.7849C40.8665 33.7849 40.8665 33.7849 40.8665 33.7849C39.5455 34.5742 38.1567 35.2435 36.7164 35.7849C36.6315 35.8217 36.5883 35.9167 36.6163 36.0049L36.6165 36.0049C37.4136 37.5344 38.3192 39.0049 39.3264 40.4049C39.3674 40.4674 39.4446 40.4959 39.5164 40.4749C44.2985 39.0172 48.7942 36.7474 52.8064 33.7649C52.8494 33.7389 52.8787 33.6948 52.8862 33.645C53.9966 22.9578 51.2168 12.2284 45.0565 3.4248L45.0565 3.4248ZM17.7665 27.6147C14.9817 27.4429 12.8541 25.0612 12.9965 22.2747C12.9965 19.3348 15.1165 16.9248 17.7665 16.9248C20.4828 17.2363 22.5336 19.5356 22.5336 22.2698C22.5336 25.0039 20.4828 27.3032 17.7665 27.6147L17.7665 27.6147ZM35.4265 27.6147C33.2086 27.8678 31.0649 26.7251 30.0387 24.7427C29.0126 22.7603 29.3171 20.3501 30.8042 18.6853C32.2913 17.0205 34.652 16.447 36.7371 17.2439C38.8223 18.0408 40.1987 20.0425 40.1965 22.2748C40.1865 25.2148 38.0964 27.6149 35.4265 27.6149L35.4265 27.6147Z" id="Shape" fill="#1E1E50" fill-rule="evenodd" stroke="none" />
</svg>